<svg xmlns="http://www.w3.org/2000/svg" viewBox="0 0 1286.38 772.39"><defs><style>.cls-1{fill:#f7f7f7;}.cls-2{fill:#fff;}.cls-10,.cls-3,.cls-4,.cls-5,.cls-6,.cls-7,.cls-8{fill:none;stroke-miterlimit:10;}.cls-10,.cls-3,.cls-4,.cls-5,.cls-6,.cls-7{stroke:#000;}.cls-4{stroke-dasharray:2 2;}.cls-5{stroke-dasharray:2 2;}.cls-6{stroke-dasharray:2 2;}.cls-7{stroke-dasharray:2 2;}.cls-8{stroke:#00f9e2;}.cls-9{fill:#00f9e2;}.cls-10{stroke-dasharray:2 2;}</style></defs><title>supply</title><g id="Ebene_2" data-name="Ebene 2"><g id="Ebene_1-2" data-name="Ebene 1"><rect class="cls-1" x="432.94" y="130.6" width="418.97" height="219.52"/><rect class="cls-1" x="432.94" width="418.97" height="117.52"/><rect class="cls-1" x="867.42" width="418.97" height="117.52"/><rect class="cls-1" x="432.94" y="662.22" width="418.97" height="109.76"/><rect class="cls-1" x="867.42" y="662.22" width="418.97" height="109.76"/><rect class="cls-1" x="432.94" y="430.14" width="418.97" height="219.52"/><rect class="cls-1" x="867.42" y="430.14" width="418.97" height="219.52"/><rect class="cls-1" y="130.6" width="418.97" height="219.52"/><rect class="cls-1" width="418.97" height="117.52"/><rect class="cls-1" y="662.22" width="418.97" height="109.76"/><rect class="cls-1" y="430.14" width="418.97" height="219.52"/><rect class="cls-2" x="273.11" y="0.26" width="38.07" height="372.14"/><rect class="cls-2" x="607.74" y="0.26" width="38.07" height="372.14"/><rect class="cls-2" x="273.2" y="400.25" width="38.07" height="372.14"/><rect class="cls-2" x="607.74" y="400.25" width="38.07" height="372.14"/><rect class="cls-2" x="961.4" y="400.25" width="38.07" height="372.14"/><rect class="cls-1" x="867.42" y="130.6" width="418.97" height="219.52"/><line class="cls-3" x1="999.47" y1="770.96" x2="999.47" y2="769.96"/><path class="cls-4" d="M999.47,768V377.53a5.42,5.42,0,0,0-5.42-5.42H651.22a5.42,5.42,0,0,1-5.42-5.42V2.26"/><line class="cls-3" x1="645.8" y1="1.26" x2="645.8" y2="0.26"/><line class="cls-3" x1="645.8" y1="770.96" x2="645.8" y2="769.96"/><path class="cls-5" d="M645.8,768V415.6a5.42,5.42,0,0,1,5.42-5.42H956a5.42,5.42,0,0,1,5.42,5.42V769"/><line class="cls-3" x1="961.4" y1="769.96" x2="961.4" y2="770.96"/><line class="cls-3" x1="311.17" y1="770.96" x2="311.17" y2="769.96"/><path class="cls-6" d="M311.17,768V415.6a5.42,5.42,0,0,1,5.42-5.42H602.32a5.42,5.42,0,0,1,5.42,5.42V769"/><line class="cls-3" x1="607.74" y1="769.96" x2="607.74" y2="770.96"/><line class="cls-3" x1="273.11" y1="0.26" x2="273.11" y2="1.26"/><polyline class="cls-7" points="273.11 3.25 273.11 372.11 273.11 410.18 273.11 768.97"/><line class="cls-3" x1="273.11" y1="769.96" x2="273.11" y2="770.96"/><line class="cls-8" x1="292.23" y1="486.89" x2="292.23" y2="277.12"/><polygon class="cls-9" points="293.92 484.89 292.23 486.59 290.53 484.89 290.53 486.33 292.23 488.03 293.92 486.33 293.92 484.89"/><polygon class="cls-9" points="293.92 279.11 292.23 277.42 290.53 279.11 290.53 277.67 292.23 275.98 293.92 277.67 293.92 279.11"/><line class="cls-8" x1="626.77" y1="486.89" x2="626.77" y2="277.12"/><polygon class="cls-9" points="628.47 484.89 626.77 486.59 625.08 484.89 625.08 486.33 626.77 488.03 628.47 486.33 628.47 484.89"/><polygon class="cls-9" points="628.47 279.11 626.77 277.42 625.08 279.11 625.08 277.67 626.77 275.98 628.47 277.67 628.47 279.11"/><polyline class="cls-8" points="290.95 391.15 979 391.15 979 486.89"/><polygon class="cls-9" points="977.31 484.89 979 486.59 980.7 484.89 980.7 486.33 979 488.03 977.31 486.33 977.31 484.89"/><rect x="279.01" y="314.65" width="26.44" height="35.47" rx="1.78" ry="1.78"/><rect x="613.55" y="372.39" width="26.44" height="35.47" rx="1.78" ry="1.78"/><line class="cls-3" x1="607.74" y1="0.26" x2="607.74" y2="1.26"/><path class="cls-10" d="M607.74,3.26V366.69a5.42,5.42,0,0,1-5.42,5.42H316.59a5.42,5.42,0,0,1-5.42-5.42V2.26"/><line class="cls-3" x1="311.17" y1="1.26" x2="311.17" y2="0.26"/></g></g></svg>