<svg xmlns="http://www.w3.org/2000/svg" viewBox="0 0 797 2652"><defs><style>.cls-1,.cls-2{fill:none;stroke:#565656;stroke-miterlimit:10;}.cls-2{stroke-dasharray:5 5;}</style></defs><title>verbindung</title><g id="Ebene_2" data-name="Ebene 2"><g id="Ebene_2-2" data-name="Ebene 2"><line class="cls-1" x1="0.5" x2="0.5" y2="2.5"/><path class="cls-2" d="M.5,7.5V352.82c0,6.09,4.48,11,10,11H767.32c5.52,0,10,4.94,10,11v501c0,6.09-4.48,11-10,11H94.77c-5.52,0-10,4.94-10,11v587.62c0,6.09,4.48,11,10,11H786.5c5.52,0,10,4.94,10,11V2083.4c0,6.09-4.48,11-10,11H242.42c-5.52,0-10,4.94-10,11V2647"/><line class="cls-1" x1="232.42" y1="2649.5" x2="232.42" y2="2652"/></g></g></svg>